<?xml version="1.0" encoding="UTF-8"?>
<svg id="Layer_1" data-name="Layer 1" xmlns="http://www.w3.org/2000/svg" viewBox="0 0 1920 1080">
  <defs>
    <style>
      .cls-1 {
        fill: #fff;
      }

      .cls-2 {
        fill: #03a9f4;
      }
    </style>
  </defs>
  <rect class="cls-2" y="0" width="1920" height="1080"/>
  <g>
    <path class="cls-1" d="m1138.53,363.2c20.72,0,37.59,16.86,37.59,37.59s-16.86,37.59-37.59,37.59-37.59-16.86-37.59-37.59,16.86-37.59,37.59-37.59m0-8.72c-25.58,0-46.31,20.73-46.31,46.31s20.73,46.31,46.31,46.31,46.31-20.73,46.31-46.31-20.73-46.31-46.31-46.31h0Z"/>
    <path class="cls-1" d="m762.87,678.84c10.47,0,18.98,8.52,18.98,18.98s-8.52,18.98-18.98,18.98-18.98-8.52-18.98-18.98,8.52-18.98,18.98-18.98m0-8.72c-15.3,0-27.7,12.4-27.7,27.7s12.4,27.7,27.7,27.7,27.7-12.4,27.7-27.7-12.4-27.7-27.7-27.7h0Z"/>
    <circle class="cls-1" cx="952.36" cy="564.64" r="158.06"/>
  </g>
</svg>